<svg id="Layer_1" data-name="Layer 1" xmlns="http://www.w3.org/2000/svg" viewBox="0 0 325.21 94.5"><defs><style>.cls-1{fill:#d00011;}</style></defs><title>sauf</title><rect class="cls-1" x="49.91" y="51.91" width="42.59" height="42.59"/><rect class="cls-1" x="49.91" width="42.59" height="42.59"/><rect class="cls-1" y="51.91" width="42.59" height="42.59"/><path class="cls-1" d="M304.92,260.72a14.08,14.08,0,0,0-5.07-.79,5.69,5.69,0,0,0-3.4.79,2.39,2.39,0,0,0-1,2,2.14,2.14,0,0,0,1.13,1.82,11.37,11.37,0,0,0,4,1.23,19.59,19.59,0,0,1,6,2,15.69,15.69,0,0,1,4.28,3.3,13.61,13.61,0,0,1,2.61,4.24,13.25,13.25,0,0,1,.89,4.78,15,15,0,0,1-5.07,11.72q-5.07,4.53-15.31,4.53A28.41,28.41,0,0,1,283,294.35a35.78,35.78,0,0,1-7.78-4.28l5.61-9.36q1,.69,2.36,1.48a26.14,26.14,0,0,0,2.91,1.43,23.4,23.4,0,0,0,3.25,1.08,13.59,13.59,0,0,0,3.4.44,8.12,8.12,0,0,0,3.69-.69,2.28,2.28,0,0,0,1.33-2.17,3.19,3.19,0,0,0-1.38-2.56,10.19,10.19,0,0,0-4.63-1.58q-7.39-1.08-10.59-4.43a11.89,11.89,0,0,1-3.2-8.57,14.22,14.22,0,0,1,1.67-7,15.51,15.51,0,0,1,4.43-5,19.47,19.47,0,0,1,6.2-3,25.38,25.38,0,0,1,7-1,47.42,47.42,0,0,1,5.22.25,33.71,33.71,0,0,1,3.84.64,22.19,22.19,0,0,1,3.15,1l3.15,1.28-4,10.24A26.06,26.06,0,0,0,304.92,260.72Z" transform="translate(-165.01 -206.51)"/><path class="cls-1" d="M370.56,295.09H355.49v-2.86q-.89.59-2,1.28a14,14,0,0,1-2.71,1.28,20.76,20.76,0,0,1-3.79.94,33.11,33.11,0,0,1-5.12.34,22.66,22.66,0,0,1-9.85-2,20.87,20.87,0,0,1-7-5.32,22.75,22.75,0,0,1-4.23-7.48,26.71,26.71,0,0,1,0-17.23,22.78,22.78,0,0,1,4.23-7.48,20.92,20.92,0,0,1,7-5.32,22.66,22.66,0,0,1,9.85-2,28,28,0,0,1,8.81,1.08,15.74,15.74,0,0,1,4.78,2.46v-3.35h15.07Zm-33.63-19.2a9.68,9.68,0,0,0,5,5,8.92,8.92,0,0,0,3.64.74,9,9,0,0,0,3.59-.74,9.49,9.49,0,0,0,3-2,9.65,9.65,0,0,0,2-3,8.93,8.93,0,0,0,.74-3.64,9,9,0,0,0-.74-3.59,9.41,9.41,0,0,0-5-5,9,9,0,0,0-3.59-.74,8.93,8.93,0,0,0-3.64.74,9.65,9.65,0,0,0-3,2,9.5,9.5,0,0,0-2,3,9,9,0,0,0-.74,3.59A8.93,8.93,0,0,0,336.93,275.89Z" transform="translate(-165.01 -206.51)"/><path class="cls-1" d="M397.05,275.89a6,6,0,0,0,1.67,4.68,7.14,7.14,0,0,0,8.77,0q1.67-1.48,1.67-4.73v-26.1h17v27a20.1,20.1,0,0,1-1.62,8.27,16.42,16.42,0,0,1-4.63,6.11,20.67,20.67,0,0,1-7.29,3.74,35.92,35.92,0,0,1-19,0,21.18,21.18,0,0,1-7.34-3.74,16.19,16.19,0,0,1-4.68-6.11,20.1,20.1,0,0,1-1.62-8.27v-27h17Z" transform="translate(-165.01 -206.51)"/><path class="cls-1" d="M433.29,263.87V249.79h5.52V238.17q0-8.37,4.83-12.21t15.46-3.84a34.89,34.89,0,0,1,4,.25,18.18,18.18,0,0,1,3.59.74v12a12.81,12.81,0,0,0-2.07-.39q-1-.1-3-.1a6.35,6.35,0,0,0-4.23,1.33,4.92,4.92,0,0,0-1.58,4v9.85h9.65v14.08h-9.65v31.22h-17V263.87Z" transform="translate(-165.01 -206.51)"/><path class="cls-1" d="M487.74,293a8.64,8.64,0,0,1-12.08,0,8.53,8.53,0,0,1,0-12,8.64,8.64,0,0,1,12.08,0,8.52,8.52,0,0,1,0,12Z" transform="translate(-165.01 -206.51)"/></svg>